<?xml version="1.0" encoding="UTF-8" standalone="no"?>
<!-- Created with Inkscape (http://www.inkscape.org/) -->

<svg
   xmlns:dc="http://purl.org/dc/elements/1.1/"
   xmlns:cc="http://creativecommons.org/ns#"
   xmlns:rdf="http://www.w3.org/1999/02/22-rdf-syntax-ns#"
   xmlns:svg="http://www.w3.org/2000/svg"
   xmlns="http://www.w3.org/2000/svg"
   xmlns:sodipodi="http://sodipodi.sourceforge.net/DTD/sodipodi-0.dtd"
   xmlns:inkscape="http://www.inkscape.org/namespaces/inkscape"
   width="74.561951mm"
   height="96.526573mm"
   viewBox="0 0 264.19589 342.02329"
   id="svg2"
   version="1.1"
   inkscape:version="0.91 r13725"
   sodipodi:docname="logo.svg"
   inkscape:export-filename="/home/zac/Dev/benahavisproject/logo.png"
   inkscape:export-xdpi="90"
   inkscape:export-ydpi="90">
  <defs
     id="defs4" />
  <sodipodi:namedview
     id="base"
     pagecolor="#ffffff"
     bordercolor="#666666"
     borderopacity="1.0"
     inkscape:pageopacity="0.0"
     inkscape:pageshadow="2"
     inkscape:zoom="0.7"
     inkscape:cx="42.38453"
     inkscape:cy="270.40221"
     inkscape:document-units="px"
     inkscape:current-layer="layer1"
     showgrid="false"
     fit-margin-top="0"
     fit-margin-left="0"
     fit-margin-right="0"
     fit-margin-bottom="0"
     inkscape:window-width="1366"
     inkscape:window-height="710"
     inkscape:window-x="0"
     inkscape:window-y="27"
     inkscape:window-maximized="1" />
  <metadata
     id="metadata7">
    <rdf:RDF>
      <cc:Work
         rdf:about="">
        <dc:format>image/svg+xml</dc:format>
        <dc:type
           rdf:resource="http://purl.org/dc/dcmitype/StillImage" />
        <dc:title></dc:title>
      </cc:Work>
    </rdf:RDF>
  </metadata>
  <g
     inkscape:label="Layer 1"
     inkscape:groupmode="layer"
     id="layer1"
     transform="translate(786.33874,218.34724)">
    <path
       style="fill:#9a00ff;fill-opacity:1;fill-rule:evenodd;stroke:none;stroke-width:1px;stroke-linecap:butt;stroke-linejoin:miter;stroke-opacity:1"
       d="m -783.125,-73.798516 9.375,5.625 1.04832,-31.480803 9.34391,-2.020301 13.38452,-47.98225 30.30458,14.64721 132.32998,-26.76904 14.48155,-15.8591 11.42857,20 15.71429,48.57143 10.71429,1.42857 2.85714,30.714294 10,-5.71429 -3.57653,-81.666284 -23.73859,-37.37564 -36.36549,-14.14214 -31.31473,-2.52538 -84.34774,2.52538 -30.30457,8.5863 -33.84011,14.64721 -20.70813,38.89087"
       id="path4147"
       inkscape:connector-curvature="0" />
    <path
       style="fill:#9a00ff;fill-opacity:1;fill-rule:evenodd;stroke:none;stroke-width:1px;stroke-linecap:butt;stroke-linejoin:miter;stroke-opacity:1"
       d="m -775.90545,-34.412817 19.19289,9.09137 3.66181,36.17609 29.16815,20.39246 4.59689,48.97224 46.42857,-1.78571 -1.42857,-28.92857 58.57143,-4.28572 1.42857,29.64286 47.48183,-4.21915 -2.0203,-51.51778 23.23351,-22.2233599 1.51522,-36.3654901 17.1726,-10.10153 1.51523,69.70053 -6.56599,40.91118 -28.28428,36.36549 -39.90102,22.223347 -81.31728,4.04061 -40.91118,-14.64721 -35.86042,-36.365487 -10.10152,-40.91118"
       id="path4149"
       inkscape:connector-curvature="0"
       sodipodi:nodetypes="cccccccccccccccccccccc" />
    <path
       style="fill:#9a00ff;fill-opacity:1;fill-rule:evenodd;stroke:none;stroke-width:1px;stroke-linecap:butt;stroke-linejoin:miter;stroke-opacity:1"
       d="m -730.71428,-11.92351 19.64285,-1.78571 7.79587,15.6276202 17.91842,9.3723798 72.9438,-6.4718998 16.65573,-11.11476 6.11476,-15.9847702 20.653,-2.62627 -16.36729,36.91198 -22.85714,13.57143 -75,5.71429 -30,-12.14286"
       id="path4151"
       inkscape:connector-curvature="0"
       sodipodi:nodetypes="cccccccccccc" />
    <path
       style="fill:#9a00ff;fill-opacity:1;fill-rule:evenodd;stroke:none;stroke-width:1px;stroke-linecap:butt;stroke-linejoin:miter;stroke-opacity:1"
       d="m -707.62254,-71.566367 -9.28572,-2.85714 -4.28571,-8.57143 5.71428,-11.07143 17.14286,-5.35714 16.07143,5.71428 10,7.5 -1.07143,14.28572 -7.14285,10.35713 -11.42858,4.64287 -18.92857,1.78571 -14.01786,-3.30357 -0.26785,-4.55357 8.57142,-0.71429 9.28572,-4.28571"
       id="path4153"
       inkscape:connector-curvature="0"
       sodipodi:nodetypes="ccccccccccccccc" />
    <path
       style="fill:#9a00ff;fill-opacity:1;fill-rule:evenodd;stroke:none;stroke-width:1px;stroke-linecap:butt;stroke-linejoin:miter;stroke-opacity:1"
       d="m -599.97258,-77.690937 9.28569,-2.85714 4.2857,-8.57143 -5.71427,-11.071433 -17.14282,-5.35714 -16.07139,5.714283 -9.99997,7.5 1.07142,14.28572 7.14283,10.35713 11.42856,4.64287 18.92852,1.78571 14.01783,-3.30357 0.26784,-4.55357 -8.5714,-0.71429 -9.28569,-4.28571"
       id="path4153-2"
       inkscape:connector-curvature="0"
       sodipodi:nodetypes="ccccccccccccccc" />
  </g>
</svg>
